<svg width="300" height="300" viewBox="0 0 300 300" fill="none" xmlns="http://www.w3.org/2000/svg">
<path opacity="0.2" d="M150 253.125C206.954 253.125 253.125 206.954 253.125 150C253.125 93.0456 206.954 46.875 150 46.875C93.0456 46.875 46.875 93.0456 46.875 150C46.875 206.954 93.0456 253.125 150 253.125Z" fill="#00875F"/>
<path d="M150 84.375V150H215.625" stroke="#00875F" stroke-width="18.75" stroke-linecap="round" stroke-linejoin="round"/>
<path d="M150 253.125C206.954 253.125 253.125 206.954 253.125 150C253.125 93.0456 206.954 46.875 150 46.875C93.0456 46.875 46.875 93.0456 46.875 150C46.875 206.954 93.0456 253.125 150 253.125Z" stroke="#00875F" stroke-width="18.75" stroke-miterlimit="10"/>
<path d="M229.571 30.703L269.298 70.4296" stroke="#00875F" stroke-width="18.75" stroke-linecap="round" stroke-linejoin="round"/>
<path d="M30.7036 70.4296L70.4302 30.703" stroke="#00875F" stroke-width="18.75" stroke-linecap="round" stroke-linejoin="round"/>
</svg>
